<?xml version="1.0" encoding="utf-8"?>
<!-- Generator: Adobe Illustrator 16.1.0, SVG Export Plug-In . SVG Version: 6.00 Build 0)  -->
<!DOCTYPE svg PUBLIC "-//W3C//DTD SVG 1.1//EN" "http://www.w3.org/Graphics/SVG/1.1/DTD/svg11.dtd">
<svg version="1.1" id="Layer_1" xmlns="http://www.w3.org/2000/svg" xmlns:xlink="http://www.w3.org/1999/xlink" x="0px" y="0px"
	 width="231px" height="80px" viewBox="0 0 231 80" enable-background="new 0 0 231 80" xml:space="preserve">
<g>
	<g>
		<g>
			<path fill="#004D6E" d="M7.545,57.171h9.985c2.777,0,4.931,0.779,6.366,2.215c1.217,1.217,1.872,2.933,1.872,4.993v0.062
				c0,3.526-1.903,5.742-4.681,6.771l5.336,7.801h-5.617l-4.681-6.99H12.35v6.99H7.544L7.545,57.171L7.545,57.171z M17.219,67.78
				c2.34,0,3.682-1.248,3.682-3.089V64.63c0-2.061-1.436-3.12-3.775-3.12h-4.774v6.271L17.219,67.78L17.219,67.78z"/>
			<path fill="#004D6E" d="M30.35,57.171h16.476v4.274H35.125v4.432h10.297v4.274H35.125v4.587h11.857v4.275H30.35V57.171
				L30.35,57.171z"/>
			<path fill="#004D6E" d="M50.535,68.154v-0.062c0-6.21,4.68-11.296,11.389-11.296c4.119,0,6.585,1.373,8.612,3.37l-3.058,3.525
				c-1.685-1.528-3.401-2.465-5.586-2.465c-3.682,0-6.334,3.059-6.334,6.803v0.062c0,3.745,2.59,6.865,6.334,6.865
				c2.497,0,4.025-0.999,5.742-2.56l3.057,3.089c-2.246,2.402-4.742,3.9-8.955,3.9C55.308,79.389,50.535,74.427,50.535,68.154z"/>
			<path fill="#004D6E" d="M79.861,61.602h-6.646v-4.431h18.1v4.431h-6.646v17.412h-4.807V61.602L79.861,61.602z"/>
			<path fill="#004D6E" d="M99.921,57.015h4.431l9.361,21.999h-5.023l-1.996-4.899h-9.236l-1.997,4.899h-4.899L99.921,57.015z
				 M104.977,69.871l-2.901-7.083l-2.902,7.083H104.977z"/>
			<path fill="#004D6E" d="M117.328,57.171h4.432l10.234,13.449V57.171h4.742v21.843h-4.088L122.07,65.128v13.886h-4.742V57.171z"/>
			<path fill="#004D6E" d="M141.255,68.154v-0.062c0-6.21,4.836-11.296,11.451-11.296c3.933,0,6.304,1.061,8.581,2.996l-3.025,3.65
				c-1.686-1.403-3.184-2.216-5.711-2.216c-3.494,0-6.271,3.089-6.271,6.803v0.062c0,3.994,2.746,6.927,6.615,6.927
				c1.746,0,3.308-0.437,4.523-1.311v-3.121h-4.836v-4.15h9.484v9.486c-2.246,1.904-5.336,3.464-9.33,3.464
				C145.936,79.389,141.255,74.613,141.255,68.154z"/>
			<path fill="#004D6E" d="M166.932,57.171h4.805v17.474h10.891v4.369h-15.695V57.171L166.932,57.171z"/>
			<path fill="#004D6E" d="M186.491,57.171h16.476v4.274h-11.701v4.432h10.297v4.274h-10.297v4.587h11.857v4.275h-16.632V57.171
				L186.491,57.171z"/>
			<path fill="#004D6E" d="M206.145,75.831l2.84-3.401c1.967,1.623,4.025,2.652,6.521,2.652c1.967,0,3.152-0.78,3.152-2.061V72.96
				c0-1.218-0.749-1.841-4.4-2.777c-4.398-1.124-7.238-2.34-7.238-6.678v-0.062c0-3.963,3.183-6.584,7.646-6.584
				c3.183,0,5.897,0.999,8.112,2.777l-2.496,3.62c-1.936-1.342-3.838-2.153-5.68-2.153s-2.809,0.842-2.809,1.903v0.062
				c0,1.437,0.936,1.903,4.712,2.871c4.431,1.155,6.927,2.746,6.927,6.553v0.062c0,4.337-3.308,6.771-8.02,6.771
				C212.105,79.325,208.766,78.172,206.145,75.831z"/>
		</g>
		<g>
			<path fill="#FFFFFF" d="M28.403,48.604c-4.374,0-10.529-4.05-10.529-7.074c0-1.782,3.185-3.564,4.427-3.619
				c1.081,0.107,1.675,0.973,2.052,1.782c0,0,0.055,0.055,0.055,0.108c0.486,0.971,2.376,4.752,4.807,4.806
				c2.052,0,4.267-3.402,4.267-8.802c0-3.943-1.079-7.994-3.78-10.315c-1.781,1.135-3.673,1.781-5.725,1.781
				c-3.023,0-5.021-1.835-5.021-3.671c0-1.783,1.943-3.511,6.695-3.511c1.027,0,2.106,0.107,3.24,0.324
				c1.459-2.269,2.053-4.429,2.053-6.318c0-3.781-2.484-6.319-5.617-6.319c-1.565,0-5.129,1.998-9.396,4.699v6.696
				c0,8.641,0.217,16.418,0.27,28.245c0,0,0,1.241-0.756,1.241c-2.7,0-6.696-0.054-6.696-0.054s-0.864,0-0.971-1.08
				c0.053-3.133,0.053-7.453,0.053-10.748V17.877l-5.455,3.778c0,0-0.594,0.433-1.187,0.433C0.54,22.088,0,21.332,0,20.36
				c0-0.485,0.162-1.135,0.864-1.62c2.054-1.459,4.43-3.133,6.914-4.808V2.917c0-0.433,0.322-0.864,1.187-1.08
				c0.812-0.162,5.509-0.648,6.211-0.595c0.647,0,1.025,0.271,1.025,0.919c-0.053,2.321-0.215,4.481-0.215,6.534
				C22.953,4.429,29.27,1.082,30.89,1.082c5.293,0.054,7.453,3.672,7.453,8.209c0,4.156-1.782,9.071-4.752,12.69
				c4.807,2.269,8.965,6.643,8.965,13.015C42.553,43.907,35.748,48.604,28.403,48.604z"/>
			<path fill="#FFFFFF" d="M68.416,38.02C65.608,42.665,59.992,48.28,55.24,48.28c-5.941,0-10.101-6.265-10.101-13.124
				c0-8.263,4.43-17.335,13.664-17.335c3.132,0,5.13,2.105,5.13,5.292c0,3.456-4.482,8.153-11.071,12.205
				c0.973,3.293,3.025,5.887,6.211,5.887c4.915,0,7.562-4.86,8.317-5.887c0.107-0.107,0.161-0.107,0.27-0.107
				c0.486,0,0.864,1.296,0.864,2.159C68.525,37.642,68.525,37.857,68.416,38.02z M57.345,21.981c-3.347,0-5.075,4.211-5.075,8.748
				c0,0.539,0,1.08,0.054,1.566c2.376-1.35,6.372-5.888,6.372-8.533C58.696,22.089,57.617,21.981,57.345,21.981z"/>
			<path fill="#FFFFFF" d="M99.035,38.02c0,0-7.775,10.153-11.232,10.153c-2.43,0-3.727-2.646-4.266-5.726
				c-0.217,0.486-6.156,6.049-9.29,6.049c-4.211,0-7.236-4.59-7.236-9.99c0-7.616,6.049-16.796,23.168-16.796
				c0,0,0.701,0.054,0.701,1.026v14.852c0,1.188,0.108,2.917,1.514,2.971c1.188,0.054,2.699-1.296,3.778-2.593
				c0.649-0.811,1.242-1.729,1.837-2.646c0.108-0.107,0.163-0.107,0.271-0.107c0.485,0,0.864,1.296,0.864,2.159
				C99.143,37.642,99.143,37.857,99.035,38.02z M74.788,36.075c0,3.511,1.512,6.535,3.51,6.535c1.782,0,4.753-3.457,4.753-3.457
				c0.217-0.27,0.217-0.541,0.217-0.701c0-2.216,0.053-13.016,0.053-13.016C77.002,26.733,74.788,31.809,74.788,36.075z"/>
			<path fill="#FFFFFF" d="M128.248,38.02c0,0-7.129,9.937-10.585,9.937c-2.646,0-3.834-2.537-4.319-5.887
				c-0.486,0.702-4.861,6.75-8.425,6.75c-5.077,0-7.185-6.587-6.913-13.284c0,0,0.27-9.506,0.486-11.287
				c0.16-1.081,0.756-1.296,1.188-1.296c0.323,0,5.293,0.648,6.049,1.026c0.324,0.107,0.594,0.432,0.539,1.134
				c-0.054,1.891-0.701,5.94-0.701,9.559c0,3.727,0.647,7.021,2.971,7.021c1.352,0,4.428-2.754,4.482-4.213
				c0.054-1.134,0.054-12.961,0.054-12.961s0.055-1.674,1.944-1.674c2.051,0,5.184,0.379,5.184,0.379s0.648-0.056,0.648,1.241
				c0,0.702-0.485,12.476-0.485,12.476c-0.056,1.242,0.323,3.24,1.62,3.293c1.943,0.057,3.672-2.482,5.238-4.913
				c0.107-0.107,0.162-0.107,0.27-0.107c0.486,0,0.863,1.296,0.863,2.159C128.357,37.642,128.357,37.857,128.248,38.02z"/>
			<path fill="#FFFFFF" d="M145.096,38.02c-3.242,4.915-8.748,10.207-12.801,10.207c-2.915,0-5.13-2.754-5.13-10.531
				c0-1.998,0.056-6.103,0.161-10.53c-0.432,0.16-0.646,0.215-0.646,0.215c-0.162,0-0.271-0.108-0.271-0.486
				c0-0.702,0.106-2.969,0.106-2.969c0.055-0.054-0.053-0.486,0.596-0.757c0.054,0,0.215-0.054,0.432-0.161
				c0.27-6.804,0.811-13.339,1.674-13.988c1.566-0.756,5.133-1.89,5.562-1.89c0.756,0,1.027,0.541,1.027,1.08
				c0,0.163-0.379,5.615-0.703,12.097c3.457-1.187,6.75-2.376,6.75-2.376s0.324-0.107,0.596-0.107c0.324,0,0.646,0.107,0.646,0.702
				c0,1.08-0.217,2.809-0.217,2.809s0,0.702-1.242,1.08l-6.75,2.215c-0.217,4.644-0.322,9.343-0.322,12.69
				c0,2.213,1.133,3.35,2.754,3.35c1.998,0,4.645-1.729,6.75-5.348c0.054-0.107,0.109-0.107,0.162-0.107
				c0.595,0,0.973,1.296,0.973,2.159C145.204,37.642,145.204,37.857,145.096,38.02z"/>
			<path fill="#FFFFFF" d="M159.243,38.02c0,0-7.128,9.937-10.585,9.937c-3.672,0-4.645-5.021-4.645-10.261
				c0-4.374,0.161-10.908,0.161-12.8c0-1.673,0.864-1.89,0.864-1.89c1.566-0.756,5.129-1.188,5.562-1.188
				c0.756,0,1.025,0.541,1.025,1.08c0,1.62-0.054,4.537-0.107,14.689c0,1.188,0.055,2.593,1.459,2.646
				c1.943,0.057,3.67-2.482,5.237-4.913c0.108-0.107,0.161-0.107,0.271-0.107c0.486,0,0.863,1.296,0.863,2.159
				C159.352,37.642,159.352,37.857,159.243,38.02z M148.982,15.771c-2.375,0-4.267-1.89-4.267-4.267
				c0-2.322,1.892-4.267,4.267-4.267c2.32,0,4.267,1.944,4.267,4.267C153.248,13.881,151.303,15.771,148.982,15.771z"/>
			<path fill="#FFFFFF" d="M177.656,37.371c-0.917,2.918-6.264,7.021-9.936,7.021c-0.757,0-1.459-0.161-2.054-0.593
				c-0.108,0-0.271,0.054-0.271,0.702c0.054,0.323,0.492,5.563,0.492,7.346c0,0.972-0.324,1.134-0.81,1.187
				c0,0-4.543-0.106-5.19-0.106c-0.324,0-1.189-0.271-1.189-1.459c-0.16-8.856-0.538-14.853-0.538-29.648
				c0-3.457,0-7.021,0.053-10.692c0.056-4.374,8.372-11.125,10.964-11.125c2.971,0,4.969,5.237,4.969,9.667
				c0,7.182-2.862,16.957-8.262,23.653c0,0-0.65,0.972-0.65,1.513c0.109,2.754,0.703,5.237,4.43,5.237
				c2.215,0,5.725-2.483,6.857-4.752c0.108-0.107,0.164-0.107,0.271-0.107c0.432,0,0.918,0.918,0.918,1.729
				C177.711,37.102,177.711,37.264,177.656,37.371z M167.773,5.725c-3.617,0-2.916,11.233-3.022,14.257
				c-0.056,2.484,0.216,8.75,0.271,8.75c0.053,0.055,0.107,0.108,0.16,0.108c0.164,0,0.271-0.325,0.271-0.325
				c3.296-5.076,4.808-11.61,4.808-16.417C170.258,8.372,169.34,5.725,167.773,5.725z"/>
			<path fill="#FFFFFF" d="M206.709,38.02c0,0-7.128,9.937-10.585,9.937c-2.646,0-3.835-2.537-4.319-5.887
				c-0.486,0.702-4.861,6.75-8.425,6.75c-5.077,0-7.184-6.587-6.913-13.284c0,0,0.27-9.506,0.484-11.287
				c0.164-1.081,0.757-1.296,1.189-1.296c0.322,0,5.291,0.648,6.047,1.026c0.326,0.107,0.596,0.432,0.541,1.134
				c-0.055,1.891-0.701,5.94-0.701,9.559c0,3.727,0.646,7.021,2.971,7.021c1.352,0,4.428-2.754,4.482-4.213
				c0.053-1.134,0.053-12.961,0.053-12.961s0.056-1.674,1.945-1.674c2.051,0,5.185,0.379,5.185,0.379s0.647-0.056,0.647,1.241
				c0,0.702-0.485,12.476-0.485,12.476c-0.056,1.242,0.321,3.24,1.62,3.293c1.943,0.057,3.671-2.482,5.238-4.913
				c0.107-0.107,0.16-0.107,0.27-0.107c0.486,0,0.863,1.296,0.863,2.159C206.818,37.642,206.818,37.857,206.709,38.02z"/>
			<path fill="#FFFFFF" d="M223.178,38.02c0,0-7.13,9.937-10.586,9.937c-3.835,0-6.806-4.05-6.912-9.883
				c0-1.241-0.055-6.156-0.055-11.719s0.055-11.666,0.107-15.229C205.842,6.751,214.212,0,216.803,0c2.971,0,4.213,5.94,4.213,8.694
				c0,4.268-0.377,11.666-7.886,22.412c0,8.37,0.865,10.424,2.595,10.424c1.942,0,4.858-3.78,6.426-6.211
				c0.107-0.107,0.162-0.107,0.271-0.107c0.484,0,0.861,1.296,0.861,2.159C223.284,37.642,223.284,37.857,223.178,38.02z
				 M214.32,5.563c-1.944,0-1.997,4.915-1.997,5.4c0,3.133,0.053,15.121,0.053,15.121c0,0.271,0.108,0.271,0.108,0.271
				c0.107,0,0.269-0.271,0.269-0.271c1.729-2.159,3.892-11.665,3.892-15.014C216.643,7.562,215.292,5.563,214.32,5.563z"/>
		</g>
	</g>
</g>
</svg>
