<?xml version="1.0" encoding="utf-8"?>
<!-- Generator: Adobe Illustrator 15.1.0, SVG Export Plug-In . SVG Version: 6.00 Build 0)  -->
<!DOCTYPE svg PUBLIC "-//W3C//DTD SVG 1.1//EN" "http://www.w3.org/Graphics/SVG/1.1/DTD/svg11.dtd">
<svg version="1.1" id="Layer_1" xmlns="http://www.w3.org/2000/svg" xmlns:xlink="http://www.w3.org/1999/xlink" x="0px" y="0px"
	 width="308px" height="97px" viewBox="0 0 308 97" enable-background="new 0 0 308 97" xml:space="preserve">
<g>
	<rect fill="#FFFFFF" width="75" height="60"/>
	<polygon fill="#004D6E" points="38,60 75,60 38,97 	"/>
	<g>
		<path fill="#004D6E" d="M91.859,65.657h9.985c2.777,0,4.931,0.78,6.366,2.215c1.217,1.217,1.872,2.933,1.872,4.993v0.062
			c0,3.526-1.903,5.742-4.681,6.771l5.336,7.801h-5.617l-4.681-6.99h-3.775v6.99h-4.806V65.657z M101.533,76.267
			c2.34,0,3.682-1.248,3.682-3.089v-0.062c0-2.06-1.436-3.12-3.775-3.12h-4.774v6.272H101.533z"/>
		<path fill="#004D6E" d="M114.664,65.657h16.476v4.275h-11.701v4.431h10.297v4.275h-10.297v4.587h11.857V87.5h-16.632V65.657z"/>
		<path fill="#004D6E" d="M134.849,76.641v-0.062c0-6.21,4.68-11.296,11.389-11.296c4.119,0,6.585,1.373,8.612,3.37l-3.058,3.526
			c-1.685-1.529-3.401-2.465-5.586-2.465c-3.682,0-6.334,3.058-6.334,6.803v0.062c0,3.745,2.59,6.865,6.334,6.865
			c2.497,0,4.025-0.999,5.742-2.559l3.058,3.089c-2.246,2.402-4.743,3.9-8.955,3.9C139.622,87.875,134.849,82.913,134.849,76.641z"
			/>
		<path fill="#004D6E" d="M164.175,70.088h-6.646v-4.431h18.099v4.431h-6.646V87.5h-4.806V70.088z"/>
		<path fill="#004D6E" d="M184.235,65.501h4.431l9.361,21.999h-5.023l-1.997-4.899h-9.236l-1.997,4.899h-4.899L184.235,65.501z
			 M189.29,78.357l-2.901-7.083l-2.902,7.083H189.29z"/>
		<path fill="#004D6E" d="M201.642,65.657h4.431l10.235,13.449V65.657h4.743V87.5h-4.088l-10.578-13.886V87.5h-4.743V65.657z"/>
		<path fill="#004D6E" d="M225.569,76.641v-0.062c0-6.21,4.836-11.296,11.451-11.296c3.932,0,6.304,1.061,8.581,2.996l-3.026,3.651
			c-1.685-1.404-3.183-2.216-5.71-2.216c-3.495,0-6.272,3.089-6.272,6.803v0.062c0,3.994,2.746,6.927,6.615,6.927
			c1.747,0,3.308-0.437,4.524-1.311v-3.121h-4.836v-4.15h9.485v9.486c-2.246,1.904-5.336,3.464-9.33,3.464
			C230.249,87.875,225.569,83.1,225.569,76.641z"/>
		<path fill="#004D6E" d="M251.245,65.657h4.806v17.474h10.89V87.5h-15.695V65.657z"/>
		<path fill="#004D6E" d="M270.805,65.657h16.476v4.275h-11.701v4.431h10.297v4.275h-10.297v4.587h11.857V87.5h-16.632V65.657z"/>
		<path fill="#004D6E" d="M290.459,84.317l2.84-3.401c1.966,1.623,4.025,2.652,6.521,2.652c1.966,0,3.152-0.78,3.152-2.06v-0.062
			c0-1.217-0.749-1.841-4.4-2.777c-4.399-1.124-7.239-2.34-7.239-6.678v-0.062c0-3.963,3.183-6.584,7.646-6.584
			c3.183,0,5.897,0.999,8.112,2.777l-2.496,3.62c-1.935-1.342-3.838-2.153-5.679-2.153c-1.842,0-2.809,0.842-2.809,1.903v0.062
			c0,1.436,0.936,1.903,4.712,2.871c4.431,1.155,6.927,2.746,6.927,6.553v0.062c0,4.337-3.308,6.771-8.02,6.771
			C296.419,87.812,293.08,86.658,290.459,84.317z"/>
	</g>
	<g>
		<path fill="#FFFFFF" d="M112.717,57.091c-4.374,0-10.529-4.05-10.529-7.074c0-1.783,3.185-3.565,4.427-3.62
			c1.081,0.108,1.675,0.973,2.052,1.783c0,0,0.055,0.054,0.055,0.108c0.486,0.971,2.376,4.752,4.807,4.806
			c2.052,0,4.267-3.403,4.267-8.802c0-3.943-1.079-7.994-3.78-10.315c-1.781,1.134-3.673,1.781-5.725,1.781
			c-3.023,0-5.021-1.835-5.021-3.671c0-1.783,1.943-3.511,6.695-3.511c1.027,0,2.106,0.108,3.24,0.324
			c1.459-2.268,2.053-4.428,2.053-6.318c0-3.781-2.484-6.319-5.617-6.319c-1.565,0-5.129,1.998-9.396,4.699v6.696
			c0,8.641,0.217,16.418,0.27,28.245c0,0,0,1.242-0.756,1.242c-2.7,0-6.696-0.054-6.696-0.054s-0.864,0-0.971-1.08
			c0.053-3.133,0.053-7.453,0.053-10.748V26.363l-5.455,3.779c0,0-0.594,0.432-1.187,0.432c-0.649,0-1.189-0.756-1.189-1.727
			c0-0.486,0.162-1.135,0.864-1.62c2.054-1.459,4.43-3.133,6.914-4.808V11.403c0-0.432,0.322-0.864,1.187-1.08
			c0.812-0.162,5.509-0.648,6.211-0.594c0.647,0,1.025,0.271,1.025,0.918c-0.053,2.322-0.215,4.482-0.215,6.535
			c6.967-4.267,13.284-7.614,14.904-7.614c5.293,0.054,7.453,3.672,7.453,8.209c0,4.157-1.782,9.072-4.752,12.691
			c4.807,2.268,8.965,6.642,8.965,13.014C126.867,52.394,120.062,57.091,112.717,57.091z"/>
		<path fill="#FFFFFF" d="M152.73,46.506c-2.808,4.645-8.424,10.261-13.176,10.261c-5.941,0-10.101-6.265-10.101-13.124
			c0-8.263,4.43-17.335,13.664-17.335c3.132,0,5.13,2.105,5.13,5.292c0,3.456-4.482,8.153-11.071,12.205
			c0.973,3.293,3.025,5.886,6.211,5.886c4.915,0,7.562-4.86,8.317-5.886c0.107-0.108,0.161-0.108,0.27-0.108
			c0.486,0,0.864,1.296,0.864,2.159C152.839,46.128,152.839,46.344,152.73,46.506z M141.659,30.468
			c-3.347,0-5.075,4.211-5.075,8.748c0,0.539,0,1.08,0.054,1.566c2.376-1.349,6.372-5.887,6.372-8.533
			C143.01,30.575,141.931,30.468,141.659,30.468z"/>
		<path fill="#FFFFFF" d="M183.349,46.506c0,0-7.775,10.153-11.232,10.153c-2.43,0-3.727-2.646-4.266-5.725
			c-0.217,0.486-6.156,6.048-9.29,6.048c-4.211,0-7.236-4.589-7.236-9.99c0-7.616,6.049-16.796,23.168-16.796
			c0,0,0.702,0.054,0.702,1.027v14.851c0,1.188,0.108,2.917,1.513,2.971c1.188,0.054,2.7-1.296,3.779-2.593
			c0.649-0.81,1.242-1.729,1.837-2.646c0.108-0.108,0.163-0.108,0.27-0.108c0.486,0,0.864,1.296,0.864,2.159
			C183.457,46.128,183.457,46.344,183.349,46.506z M159.102,44.562c0,3.51,1.512,6.535,3.51,6.535c1.782,0,4.753-3.457,4.753-3.457
			c0.216-0.27,0.216-0.541,0.216-0.702c0-2.215,0.054-13.015,0.054-13.015C161.316,35.22,159.102,40.295,159.102,44.562z"/>
		<path fill="#FFFFFF" d="M212.562,46.506c0,0-7.129,9.936-10.585,9.936c-2.646,0-3.834-2.537-4.32-5.886
			c-0.486,0.702-4.86,6.75-8.424,6.75c-5.077,0-7.184-6.587-6.913-13.285c0,0,0.27-9.505,0.486-11.287
			c0.161-1.081,0.756-1.296,1.188-1.296c0.323,0,5.292,0.649,6.048,1.027c0.324,0.107,0.594,0.431,0.539,1.134
			c-0.053,1.89-0.701,5.94-0.701,9.558c0,3.727,0.648,7.021,2.971,7.021c1.351,0,4.428-2.754,4.482-4.213
			c0.054-1.134,0.054-12.961,0.054-12.961s0.055-1.674,1.944-1.674c2.052,0,5.184,0.379,5.184,0.379s0.649-0.056,0.649,1.241
			c0,0.702-0.486,12.476-0.486,12.476c-0.055,1.242,0.323,3.24,1.62,3.293c1.943,0.056,3.672-2.483,5.238-4.913
			c0.108-0.108,0.162-0.108,0.27-0.108c0.486,0,0.864,1.296,0.864,2.159C212.671,46.128,212.671,46.344,212.562,46.506z"/>
		<path fill="#FFFFFF" d="M229.409,46.506c-3.241,4.915-8.748,10.207-12.8,10.207c-2.915,0-5.13-2.754-5.13-10.531
			c0-1.998,0.055-6.103,0.161-10.531c-0.431,0.161-0.647,0.215-0.647,0.215c-0.162,0-0.27-0.108-0.27-0.486
			c0-0.702,0.107-2.969,0.107-2.969c0.054-0.054-0.053-0.486,0.595-0.757c0.054,0,0.215-0.053,0.432-0.161
			c0.27-6.804,0.811-13.339,1.674-13.988c1.566-0.756,5.132-1.89,5.562-1.89c0.756,0,1.027,0.541,1.027,1.08
			c0,0.163-0.378,5.616-0.703,12.097c3.457-1.187,6.75-2.376,6.75-2.376s0.325-0.107,0.596-0.107c0.324,0,0.647,0.107,0.647,0.702
			c0,1.08-0.217,2.808-0.217,2.808s0,0.702-1.243,1.08l-6.75,2.215c-0.216,4.644-0.322,9.343-0.322,12.691
			c0,2.213,1.134,3.349,2.754,3.349c1.999,0,4.645-1.729,6.751-5.347c0.053-0.108,0.108-0.108,0.161-0.108
			c0.595,0,0.973,1.296,0.973,2.159C229.518,46.128,229.518,46.344,229.409,46.506z"/>
		<path fill="#FFFFFF" d="M243.557,46.506c0,0-7.128,9.936-10.585,9.936c-3.672,0-4.644-5.021-4.644-10.26
			c0-4.374,0.161-10.909,0.161-12.8c0-1.673,0.864-1.89,0.864-1.89c1.567-0.756,5.129-1.188,5.563-1.188
			c0.756,0,1.025,0.541,1.025,1.08c0,1.62-0.054,4.537-0.108,14.689c0,1.188,0.055,2.593,1.459,2.646
			c1.944,0.056,3.671-2.483,5.238-4.913c0.108-0.108,0.161-0.108,0.27-0.108c0.486,0,0.864,1.296,0.864,2.159
			C243.665,46.128,243.665,46.344,243.557,46.506z M233.297,24.257c-2.376,0-4.267-1.89-4.267-4.267
			c0-2.322,1.891-4.266,4.267-4.266c2.32,0,4.266,1.944,4.266,4.266C237.562,22.367,235.617,24.257,233.297,24.257z"/>
		<path fill="#FFFFFF" d="M261.97,45.857c-0.917,2.918-6.264,7.021-9.936,7.021c-0.756,0-1.458-0.161-2.053-0.593
			c-0.108,0-0.27,0.054-0.27,0.702c0.053,0.324,0.492,5.564,0.492,7.346c0,0.972-0.325,1.134-0.81,1.187c0,0-4.543-0.107-5.19-0.107
			c-0.325,0-1.19-0.271-1.19-1.459c-0.16-8.856-0.538-14.852-0.538-29.648c0-3.457,0-7.021,0.053-10.693
			c0.056-4.374,8.372-11.125,10.963-11.125c2.971,0,4.969,5.238,4.969,9.667c0,7.182-2.862,16.957-8.262,23.654
			c0,0-0.649,0.971-0.649,1.512c0.109,2.754,0.702,5.238,4.429,5.238c2.215,0,5.724-2.484,6.858-4.752
			c0.108-0.108,0.163-0.108,0.271-0.108c0.432,0,0.918,0.918,0.918,1.729C262.025,45.588,262.025,45.75,261.97,45.857z
			 M252.088,14.211c-3.618,0-2.916,11.233-3.023,14.257c-0.056,2.484,0.216,8.75,0.27,8.75c0.053,0.054,0.108,0.108,0.161,0.108
			c0.163,0,0.27-0.325,0.27-0.325c3.296-5.076,4.808-11.61,4.808-16.417C254.572,16.858,253.654,14.211,252.088,14.211z"/>
		<path fill="#FFFFFF" d="M291.023,46.506c0,0-7.128,9.936-10.585,9.936c-2.646,0-3.835-2.537-4.319-5.886
			c-0.486,0.702-4.862,6.75-8.425,6.75c-5.077,0-7.184-6.587-6.914-13.285c0,0,0.271-9.505,0.485-11.287
			c0.164-1.081,0.757-1.296,1.19-1.296c0.322,0,5.291,0.649,6.047,1.027c0.325,0.107,0.595,0.431,0.541,1.134
			c-0.055,1.89-0.702,5.94-0.702,9.558c0,3.727,0.647,7.021,2.971,7.021c1.351,0,4.427-2.754,4.482-4.213
			c0.053-1.134,0.053-12.961,0.053-12.961s0.056-1.674,1.945-1.674c2.051,0,5.185,0.379,5.185,0.379s0.648-0.056,0.648,1.241
			c0,0.702-0.486,12.476-0.486,12.476c-0.056,1.242,0.322,3.24,1.62,3.293c1.944,0.056,3.671-2.483,5.238-4.913
			c0.108-0.108,0.161-0.108,0.27-0.108c0.486,0,0.864,1.296,0.864,2.159C291.132,46.128,291.132,46.344,291.023,46.506z"/>
		<path fill="#FFFFFF" d="M307.492,46.506c0,0-7.13,9.936-10.586,9.936c-3.835,0-6.806-4.049-6.912-9.882
			c0-1.242-0.055-6.157-0.055-11.719c0-5.563,0.055-11.666,0.108-15.23c0.108-4.374,8.479-11.125,11.07-11.125
			c2.971,0,4.213,5.941,4.213,8.695c0,4.267-0.378,11.666-7.886,22.412c0,8.37,0.865,10.424,2.594,10.424
			c1.943,0,4.859-3.781,6.426-6.211c0.108-0.108,0.162-0.108,0.271-0.108c0.484,0,0.861,1.296,0.861,2.159
			C307.598,46.128,307.598,46.344,307.492,46.506z M298.635,14.05c-1.945,0-1.998,4.915-1.998,5.4
			c0,3.133,0.053,15.121,0.053,15.121c0,0.271,0.108,0.271,0.108,0.271c0.108,0,0.269-0.271,0.269-0.271
			c1.73-2.159,3.891-11.665,3.891-15.013C300.957,16.048,299.606,14.05,298.635,14.05z"/>
	</g>
</g>
</svg>
