<?xml version="1.0" encoding="utf-8"?>
<!-- Generator: Adobe Illustrator 15.1.0, SVG Export Plug-In . SVG Version: 6.00 Build 0)  -->
<!DOCTYPE svg PUBLIC "-//W3C//DTD SVG 1.1//EN" "http://www.w3.org/Graphics/SVG/1.1/DTD/svg11.dtd">
<svg version="1.1" id="Layer_1" xmlns="http://www.w3.org/2000/svg" xmlns:xlink="http://www.w3.org/1999/xlink" x="0px" y="0px"
	 width="350px" height="100px" viewBox="0 0 350 100" enable-background="new 0 0 350 100" xml:space="preserve">
<g>
	<linearGradient id="SVGID_1_" gradientUnits="userSpaceOnUse" x1="174.5" y1="1" x2="174.5" y2="100">
		<stop  offset="0" style="stop-color:#000000;stop-opacity:0.5"/>
		<stop  offset="1" style="stop-color:#000000"/>
	</linearGradient>
	<path fill="url(#SVGID_1_)" d="M349,90.5c0,5.247-4.253,9.5-9.5,9.5H9.5C4.253,100,0,95.747,0,90.5v-80C0,5.253,4.253,1,9.5,1h330
		c5.247,0,9.5,4.253,9.5,9.5V90.5z"/>
	<path d="M340,1c4.963,0,9,4.038,9,9v80c0,4.962-4.037,9-9,9H10c-4.962,0-9-4.038-9-9V10c0-4.962,4.038-9,9-9H340 M340,0H10
		C4.5,0,0,4.5,0,10v80c0,5.5,4.5,10,10,10h330c5.5,0,10-4.5,10-10V10C350,4.5,345.5,0,340,0L340,0z"/>
</g>
<linearGradient id="SVGID_2_" gradientUnits="userSpaceOnUse" x1="175" y1="2" x2="175" y2="98">
	<stop  offset="0" style="stop-color:#FFFFFF;stop-opacity:0.2"/>
	<stop  offset="0.1413" style="stop-color:#FFFFFF;stop-opacity:0.1717"/>
	<stop  offset="1" style="stop-color:#FFFFFF;stop-opacity:0"/>
</linearGradient>
<path fill="url(#SVGID_2_)" d="M340,3c3.859,0,7,3.141,7,7v80c0,3.859-3.141,7-7,7H10c-3.859,0-7-3.141-7-7V10c0-3.859,3.141-7,7-7
	H340 M340,2H10c-4.418,0-8,3.582-8,8v80c0,4.418,3.582,8,8,8h330c4.418,0,8-3.582,8-8V10C348,5.582,344.418,2,340,2L340,2z"/>
</svg>
