<?xml version="1.0" encoding="utf-8"?>
<!-- Generator: Adobe Illustrator 15.1.0, SVG Export Plug-In . SVG Version: 6.00 Build 0)  -->
<!DOCTYPE svg PUBLIC "-//W3C//DTD SVG 1.1//EN" "http://www.w3.org/Graphics/SVG/1.1/DTD/svg11.dtd">
<svg version="1.1" id="Layer_1" xmlns="http://www.w3.org/2000/svg" xmlns:xlink="http://www.w3.org/1999/xlink" x="0px" y="0px"
	 width="310px" height="30px" viewBox="0 0 310 30" enable-background="new 0 0 310 30" xml:space="preserve">
<g>
	<path fill="#FFFFFF" d="M9.218,10.396l-3.223,1.919c0,0-0.098,0.084-0.224,0.084c-0.112,0-0.462-0.182-0.462-0.518
		c0-0.07,0.027-0.141,0.098-0.211c0.322-0.294,0.561-0.336,1.863-1.162c0,0,0.084-0.042,0.084-0.141c0-1.05-1.429-1.988-2.689-1.988
		c-1.022,0-1.934,0.602-1.934,2.255c0,2.899,6.626,3.544,6.626,7.928c0,0.757-0.238,3.908-5.043,4.133c0,0-3.165-0.014-4.174-1.358
		c0,0-0.141-0.141-0.141-0.364c0-0.589,0.869-1.163,1.429-1.163c0.015,0,0.435,0.098,0.729,0.435c0,0,1.148,1.345,2.731,1.345
		c0.519,0,2.13-0.28,2.13-2.199c0-3.124-6.654-4.637-6.654-8.251c0-2.661,2.424-3.782,4.763-3.782c2.213,0,4.356,0.995,4.356,2.634
		C9.483,10.103,9.441,10.257,9.218,10.396z"/>
	<path fill="#FFFFFF" d="M16.678,17.246c-1.12,1.737-2.661,2.634-3.95,2.634c-1.345,0-2.409-0.98-2.409-3.012
		c0-1.989,1.148-4.188,3.124-4.188c1.541,0,2.101,0.687,2.101,1.274c0,0.448-0.322,0.854-0.798,0.854
		c-0.995,0-0.896-1.148-1.499-1.148c-0.574,0-0.967,1.106-0.967,2.228c0,1.681,0.743,2.339,1.64,2.339s1.933-0.672,2.493-1.681
		c0.027-0.028,0.042-0.028,0.069-0.028c0.127,0,0.225,0.337,0.225,0.561C16.706,17.148,16.706,17.204,16.678,17.246z"/>
	<path fill="#FFFFFF" d="M22.571,17.246c0,0-1.849,2.577-2.745,2.577c-0.952,0-1.205-1.303-1.205-2.661
		c0-1.135,0.169-2.297,0.238-2.787c0.042-0.309,0.057-0.49,0.057-0.49s-0.547-0.07-0.589-0.126c0,0-1.106,2.913-1.807,3.67
		c0,0-0.028,0.014-0.07,0.014c-0.027,0-0.07,0-0.098-0.042c-0.057-0.07-0.154-0.532-0.154-0.532c0.504-0.687,1.387-2.55,1.611-3.32
		c-0.812-0.364-1.135-0.938-1.135-1.456c0-0.574,0.406-1.064,0.966-1.064c0.477,0,0.673,0.35,0.673,0.728
		c0,0.337-0.154,0.687-0.393,0.869c0.49,0.504,1.106,0.588,1.682,0.588c0.279,0,0.686-0.014,0.798-0.014
		c0.196,0,0.294,0.014,0.294,0.154c0,0.42-0.224,1.162-0.238,3.796c0,0.308,0.127,0.658,0.491,0.672
		c0.504,0.015,0.952-0.645,1.358-1.274c0.028-0.028,0.042-0.028,0.07-0.028c0.126,0,0.224,0.337,0.224,0.561
		C22.6,17.148,22.6,17.204,22.571,17.246z"/>
	<path fill="#FFFFFF" d="M28.325,17.246c-0.729,1.205-2.186,2.661-3.418,2.661c-1.541,0-2.619-1.624-2.619-3.403
		c0-2.144,1.148-4.496,3.544-4.496c0.812,0,1.33,0.546,1.33,1.372c0,0.896-1.162,2.115-2.871,3.166
		c0.252,0.854,0.784,1.526,1.61,1.526c1.275,0,1.962-1.261,2.157-1.526c0.028-0.028,0.042-0.028,0.07-0.028
		c0.126,0,0.225,0.337,0.225,0.561C28.354,17.148,28.354,17.204,28.325,17.246z M25.454,13.086c-0.869,0-1.317,1.093-1.317,2.27
		c0,0.14,0,0.28,0.015,0.406c0.616-0.351,1.652-1.527,1.652-2.214C25.804,13.114,25.523,13.086,25.454,13.086z"/>
	<path fill="#FFFFFF" d="M34.079,17.246c-0.729,1.205-2.186,2.661-3.418,2.661c-1.541,0-2.619-1.624-2.619-3.403
		c0-2.144,1.148-4.496,3.544-4.496c0.812,0,1.33,0.546,1.33,1.372c0,0.896-1.162,2.115-2.871,3.166
		c0.252,0.854,0.784,1.526,1.61,1.526c1.275,0,1.962-1.261,2.157-1.526c0.028-0.028,0.042-0.028,0.07-0.028
		c0.126,0,0.225,0.337,0.225,0.561C34.107,17.148,34.107,17.204,34.079,17.246z M31.208,13.086c-0.869,0-1.317,1.093-1.317,2.27
		c0,0.14,0,0.28,0.015,0.406c0.616-0.351,1.652-1.527,1.652-2.214C31.558,13.114,31.277,13.086,31.208,13.086z"/>
	<path fill="#FFFFFF" d="M41.626,17.246c-0.826,1.19-2.031,2.634-2.886,2.634c-0.603,0-1.036-0.715-1.036-2.718
		c0-0.925-0.042-2.396-0.351-2.396c-0.645,0-1.541,1.555-1.541,2.228c0,0.21,0.015,0.546,0.126,2.605c0,0,0,0.322-0.195,0.322
		c-0.701,0-1.598-0.015-1.598-0.015s-0.237,0-0.252-0.279c0,0-0.098-1.541-0.098-3.11c0-1.232,0.07-2.801,0.098-2.913
		c0.028-0.112,0.084-0.225,0.309-0.28c0.21-0.042,1.19-0.225,1.372-0.21c0.169,0,0.267,0.069,0.267,0.238
		c-0.014,0.308-0.084,1.176-0.084,1.652c0,0.099,0,0.168,0.014,0.21c0.364-0.771,2.031-2.241,3.082-2.241
		c0.519,0,0.883,0.364,0.883,1.317c0,0.21-0.028,2.633-0.028,2.633c0,0.309,0.112,0.658,0.477,0.673
		c0.504,0.014,0.77-0.421,1.176-1.051c0.028-0.028,0.042-0.028,0.07-0.028c0.126,0,0.225,0.337,0.225,0.561
		C41.654,17.148,41.654,17.204,41.626,17.246z"/>
	<path fill="#FFFFFF" d="M47.323,17.246c-1.653,2.144-3.264,2.802-4.427,2.802c-1.051,0-1.737-0.547-1.737-1.022
		c0-0.547,0.631-1.051,0.925-1.051c0.183,0,0.309,0.126,0.309,0.126c0.35,0.252,0.826,0.854,1.4,0.854
		c0.294,0,0.561-0.028,0.561-0.588c-0.351-1.121-1.219-1.877-1.892-2.689c-0.322,0.714-0.7,1.429-0.994,1.751
		c0,0-0.028,0.014-0.07,0.014c-0.027,0-0.07,0-0.098-0.042c-0.057-0.07-0.154-0.532-0.154-0.532
		c0.252-0.351,0.616-1.022,0.938-1.695c-0.309-0.462-0.519-0.98-0.519-1.61c0-1.527,1.261-2.186,2.199-2.186
		c0.658,0,0.995,0.378,0.995,0.799c0,0.532-0.532,1.148-1.64,1.219c0.028,0.126,0.07,0.252,0.127,0.364h0.027
		c0,0-0.014,0.014-0.014,0.027c0.63,1.163,2.592,1.682,2.592,3.811c0,0.126,0,0.238-0.015,0.266c0.532-0.28,0.896-0.812,1.219-1.316
		c0.028-0.028,0.042-0.028,0.07-0.028c0.126,0,0.224,0.337,0.224,0.561C47.351,17.148,47.351,17.204,47.323,17.246z"/>
	<path fill="#FFFFFF" d="M54.87,17.246c-0.826,1.19-2.031,2.634-2.886,2.634c-0.603,0-1.036-0.715-1.036-2.718
		c0-0.925-0.042-2.396-0.351-2.396c-0.645,0-1.541,1.555-1.541,2.228c0,0.21,0.015,0.546,0.126,2.605c0,0,0,0.322-0.195,0.322
		c-0.701,0-1.598-0.015-1.598-0.015s-0.237,0-0.252-0.279c0,0-0.098-1.541-0.098-3.11c0-1.232,0.07-8.362,0.098-8.475
		c0.028-0.111,0.084-0.224,0.309-0.28c0.21-0.042,1.19-0.224,1.372-0.21c0.169,0,0.267,0.07,0.267,0.238
		c-0.014,0.309-0.084,6.737-0.084,7.214c0,0.099,0,0.168,0.014,0.21c0.364-0.771,2.031-2.241,3.082-2.241
		c0.519,0,0.883,0.364,0.883,1.317c0,0.476-0.028,2.633-0.028,2.633c0,0.309,0.112,0.658,0.477,0.673
		c0.504,0.014,0.77-0.421,1.176-1.051c0.028-0.028,0.042-0.028,0.07-0.028c0.126,0,0.225,0.337,0.225,0.561
		C54.898,17.148,54.898,17.204,54.87,17.246z"/>
	<path fill="#FFFFFF" d="M62.402,17.246c-0.532,0.799-1.121,1.106-1.682,1.106c-0.153,0-0.294-0.014-0.434-0.042
		c-0.532,0.896-1.443,1.569-2.718,1.569c-2.031,0-2.955-1.625-2.955-3.292c0-1.779,1.05-3.6,2.941-3.6
		c0.63,0,0.882,0.322,0.882,0.588c0,0.196-0.126,0.364-0.35,0.364c-1.009,0-1.541,0.994-1.541,2.031c0,1.12,0.616,2.283,1.919,2.283
		c0.378,0,0.687-0.141,0.91-0.364c-0.868-0.63-1.372-1.807-1.372-2.718c0-0.714,0.308-1.261,1.022-1.261
		c1.232,0,1.835,1.079,1.835,2.325c0,0.477-0.099,0.98-0.267,1.443h0.112c0.364,0,0.742-0.183,1.079-0.616
		c0.126-0.168,0.252-0.337,0.35-0.519c0.028-0.028,0.042-0.028,0.07-0.028c0.126,0,0.224,0.337,0.224,0.561
		C62.43,17.148,62.43,17.204,62.402,17.246z M59.04,14.949c-0.224,0-0.322,0.154-0.322,0.392c0,0.673,0.435,1.485,1.022,1.962
		c0.099-0.28,0.154-0.589,0.154-0.883C59.895,15.663,59.587,14.949,59.04,14.949z"/>
	<path fill="#FFFFFF" d="M66.769,17.246c-0.841,1.274-2.27,2.647-3.32,2.647c-0.756,0-1.33-0.714-1.33-2.731
		c0-0.519,0.014-1.583,0.042-2.731c-0.112,0.042-0.168,0.056-0.168,0.056c-0.042,0-0.07-0.027-0.07-0.126
		c0-0.182,0.028-0.771,0.028-0.771c0.014-0.014-0.015-0.126,0.153-0.195c0.015,0,0.057-0.015,0.112-0.042
		c0.07-1.766,0.21-3.46,0.435-3.628c0.406-0.196,1.331-0.49,1.442-0.49c0.196,0,0.267,0.14,0.267,0.279
		c0,0.042-0.099,1.457-0.183,3.138c0.896-0.308,1.751-0.616,1.751-0.616s0.084-0.027,0.154-0.027c0.084,0,0.168,0.027,0.168,0.182
		c0,0.28-0.056,0.729-0.056,0.729s0,0.182-0.322,0.28l-1.751,0.574c-0.056,1.204-0.084,2.423-0.084,3.292
		c0,0.574,0.294,0.868,0.714,0.868c0.519,0,1.205-0.448,1.751-1.387c0.015-0.028,0.028-0.028,0.042-0.028
		c0.154,0,0.253,0.337,0.253,0.561C66.797,17.148,66.797,17.204,66.769,17.246z"/>
	<path fill="#FFFFFF" d="M72.467,17.246c-1.653,2.144-3.265,2.802-4.427,2.802c-1.051,0-1.737-0.547-1.737-1.022
		c0-0.547,0.631-1.051,0.925-1.051c0.182,0,0.309,0.126,0.309,0.126c0.35,0.252,0.826,0.854,1.4,0.854
		c0.294,0,0.561-0.028,0.561-0.588c-0.351-1.121-1.219-1.877-1.892-2.689c-0.322,0.714-0.7,1.429-0.994,1.751
		c0,0-0.028,0.014-0.07,0.014c-0.028,0-0.07,0-0.098-0.042c-0.057-0.07-0.154-0.532-0.154-0.532
		c0.252-0.351,0.616-1.022,0.938-1.695c-0.309-0.462-0.519-0.98-0.519-1.61c0-1.527,1.261-2.186,2.199-2.186
		c0.658,0,0.995,0.378,0.995,0.799c0,0.532-0.532,1.148-1.64,1.219c0.028,0.126,0.07,0.252,0.127,0.364h0.027
		c0,0-0.014,0.014-0.014,0.027c0.63,1.163,2.591,1.682,2.591,3.811c0,0.126,0,0.238-0.014,0.266c0.532-0.28,0.896-0.812,1.219-1.316
		c0.028-0.028,0.042-0.028,0.07-0.028c0.126,0,0.224,0.337,0.224,0.561C72.494,17.148,72.494,17.204,72.467,17.246z"/>
</g>
<g>
	<path fill="#FFFFFF" d="M152.312,17.966c-0.826,1.19-2.199,2.83-3.334,2.83s-1.849-1.219-2.129-2.004c0,0-0.028-0.069-0.057-0.069
		c-0.027,0-0.056,0.014-0.098,0.056c-1.135,1.247-2.087,2.073-2.802,2.073c-2.955,0-4.3-2.06-4.3-4.511
		c0-3.67,3.012-8.222,8.236-8.222c0.84,0,3.866,0.56,3.866,1.82c0,0.477-0.911,1.499-1.233,1.499c-0.14,0-0.266-0.098-0.321-0.294
		c-0.379-1.331-0.841-2.073-2.689-2.073c-3.517,0-5.52,3.558-5.52,6.388c0,1.862,0.868,3.403,2.76,3.403
		c0.658,0,1.583-0.925,1.765-1.162c0,0,0.099-0.126,0.099-0.337c0-1.807-0.07-5.238-0.099-6.934c0-0.07,0.028-0.364,0.364-0.378
		c1.093-0.056,1.527-0.112,1.709-0.112c0.252,0,0.322,0.196,0.322,0.463c-0.014,0.321-0.042,1.723-0.042,2.479
		c0,0.743,0.056,4.133,0.056,4.133c0,0.294,0.168,1.905,1.064,1.905c0.883,0,1.709-1.023,2.115-1.653
		c0.028-0.028,0.042-0.028,0.07-0.028c0.126,0,0.224,0.337,0.224,0.561C152.34,17.868,152.34,17.924,152.312,17.966z"/>
	<path fill="#FFFFFF" d="M158.441,17.966c-0.435,0.658-0.911,0.938-1.345,0.938c-0.099,0-0.196,0-0.295-0.027
		c-0.448,1.176-1.414,1.849-2.353,1.849c-1.219,0-2.424-1.135-2.424-3.74c0-1.4,0.084-3.138,0.084-5.771
		c0-1.134,2.172-2.885,2.844-2.885c0.771,0,1.205,1.106,1.205,1.82c0,1.779-1.415,4.679-2.228,5.939c0,0-0.112,0.225-0.112,0.477
		c0,0.771,0.014,2.844,1.261,2.844c0.49,0,0.967-0.659,1.093-0.938c-0.49-0.505-0.812-1.387-0.812-2.34
		c0-0.714,0.168-1.106,0.532-1.106c0.868,0,1.177,1.345,1.177,2.339c0,0.309-0.028,0.603-0.084,0.869h0.112
		c0.224,0,0.504-0.154,0.728-0.448c0.127-0.168,0.253-0.337,0.351-0.519c0.028-0.028,0.042-0.028,0.07-0.028
		c0.126,0,0.224,0.337,0.224,0.561C158.469,17.868,158.469,17.924,158.441,17.966z M154.449,9.855c-0.799,0-0.505,3.474-0.617,4.707
		c0.07-0.015,0.099-0.07,0.099-0.07c0.462-0.715,1.022-2.676,1.022-3.53C154.953,10.388,154.701,9.855,154.449,9.855z"/>
	<path fill="#FFFFFF" d="M165.974,17.966c-0.532,0.799-1.121,1.106-1.682,1.106c-0.153,0-0.294-0.014-0.434-0.042
		c-0.532,0.896-1.443,1.569-2.718,1.569c-2.031,0-2.955-1.625-2.955-3.292c0-1.779,1.05-3.6,2.941-3.6
		c0.63,0,0.882,0.322,0.882,0.588c0,0.196-0.126,0.364-0.35,0.364c-1.009,0-1.541,0.994-1.541,2.031c0,1.12,0.616,2.283,1.919,2.283
		c0.378,0,0.687-0.141,0.91-0.364c-0.868-0.63-1.372-1.807-1.372-2.718c0-0.714,0.308-1.261,1.022-1.261
		c1.232,0,1.835,1.079,1.835,2.325c0,0.477-0.099,0.98-0.267,1.443h0.112c0.364,0,0.742-0.183,1.079-0.616
		c0.126-0.168,0.252-0.337,0.35-0.519c0.028-0.028,0.042-0.028,0.07-0.028c0.126,0,0.224,0.337,0.224,0.561
		C166.001,17.868,166.001,17.924,165.974,17.966z M162.611,15.669c-0.224,0-0.322,0.154-0.322,0.392
		c0,0.673,0.435,1.485,1.022,1.962c0.099-0.28,0.154-0.589,0.154-0.883C163.466,16.383,163.158,15.669,162.611,15.669z"/>
	<path fill="#FFFFFF" d="M173.548,17.966c0,0-1.85,2.577-2.746,2.577c-0.687,0-0.994-0.658-1.12-1.526
		c-0.126,0.182-1.261,1.751-2.186,1.751c-1.316,0-1.863-1.709-1.793-3.446c0,0,0.07-2.465,0.126-2.927
		c0.042-0.28,0.196-0.337,0.309-0.337c0.084,0,1.372,0.168,1.568,0.267c0.084,0.027,0.154,0.112,0.141,0.294
		c-0.015,0.49-0.183,1.541-0.183,2.479c0,0.967,0.168,1.821,0.771,1.821c0.351,0,1.148-0.715,1.163-1.093
		c0.014-0.295,0.014-3.362,0.014-3.362s0.014-0.434,0.504-0.434c0.533,0,1.345,0.098,1.345,0.098s0.169-0.014,0.169,0.322
		c0,0.182-0.127,3.235-0.127,3.235c-0.014,0.322,0.085,0.841,0.421,0.854c0.504,0.015,0.952-0.645,1.358-1.274
		c0.028-0.028,0.042-0.028,0.07-0.028c0.126,0,0.224,0.337,0.224,0.561C173.575,17.868,173.575,17.924,173.548,17.966z"/>
	<path fill="#FFFFFF" d="M177.914,17.966c-0.841,1.274-2.27,2.647-3.32,2.647c-0.756,0-1.33-0.714-1.33-2.731
		c0-0.519,0.014-1.583,0.042-2.731c-0.112,0.042-0.168,0.056-0.168,0.056c-0.042,0-0.07-0.027-0.07-0.126
		c0-0.182,0.028-0.771,0.028-0.771c0.014-0.014-0.015-0.126,0.153-0.195c0.015,0,0.057-0.015,0.112-0.042
		c0.07-1.766,0.21-3.46,0.435-3.628c0.406-0.196,1.331-0.49,1.442-0.49c0.196,0,0.267,0.14,0.267,0.279
		c0,0.042-0.099,1.457-0.183,3.138c0.896-0.308,1.751-0.616,1.751-0.616s0.084-0.027,0.154-0.027c0.084,0,0.168,0.027,0.168,0.182
		c0,0.28-0.056,0.729-0.056,0.729s0,0.182-0.322,0.28l-1.751,0.574c-0.056,1.204-0.084,2.423-0.084,3.292
		c0,0.574,0.294,0.868,0.714,0.868c0.519,0,1.205-0.448,1.751-1.387c0.015-0.028,0.028-0.028,0.042-0.028
		c0.154,0,0.253,0.337,0.253,0.561C177.942,17.868,177.942,17.924,177.914,17.966z"/>
</g>
<g>
	<path fill="#FFFFFF" d="M250.836,20.712c-0.672,0-1.134-0.042-2.129-0.421c-0.098-0.042-0.168-0.056-0.252-0.056
		c-0.336,0-1.261,0.603-2.563,0.603c-1.177,0-1.723-0.448-1.723-0.953c0-0.63,0.868-1.358,2.396-1.358
		c0.266,0,0.56,0.056,0.854,0.126c0.448-0.687,0.588-1.779,0.602-2.97l-4.706-2.396c-0.28-0.14-0.435-0.434-0.435-0.826
		c0-1.415,1.989-3.992,6.653-3.992c4.469,0,6.935,3.558,6.935,6.85C256.468,18.12,254.688,20.712,250.836,20.712z M248.665,9.226
		c-2.059,0-3.824,2.283-3.824,3.361c0,0.238,0.084,0.393,0.267,0.49l2.886,1.597c-0.099-1.652-0.393-3.319-0.435-4.202
		c-0.028-0.42,0.687-0.546,0.994-0.546c0.967,0,1.205,0.35,1.205,1.288c0,0.673,0.084,2.172,0.084,3.755
		c0,1.597-0.084,3.264-0.448,4.229c0.378,0.084,0.784,0.126,1.232,0.126c2.325,0,3.475-1.975,3.475-4.174
		C254.101,12.377,252.266,9.226,248.665,9.226z"/>
	<path fill="#FFFFFF" d="M264.852,17.966c-0.532,0.799-1.121,1.106-1.682,1.106c-0.153,0-0.294-0.014-0.434-0.042
		c-0.532,0.896-1.443,1.569-2.718,1.569c-2.031,0-2.956-1.625-2.956-3.292c0-1.779,1.051-3.6,2.942-3.6
		c0.63,0,0.882,0.322,0.882,0.588c0,0.196-0.126,0.364-0.35,0.364c-1.009,0-1.541,0.994-1.541,2.031c0,1.12,0.616,2.283,1.919,2.283
		c0.378,0,0.687-0.141,0.91-0.364c-0.868-0.63-1.372-1.807-1.372-2.718c0-0.714,0.308-1.261,1.022-1.261
		c1.232,0,1.835,1.079,1.835,2.325c0,0.477-0.099,0.98-0.267,1.443h0.112c0.364,0,0.742-0.183,1.078-0.616
		c0.127-0.168,0.253-0.337,0.351-0.519c0.028-0.028,0.042-0.028,0.07-0.028c0.126,0,0.224,0.337,0.224,0.561
		C264.879,17.868,264.879,17.924,264.852,17.966z M261.489,15.669c-0.224,0-0.322,0.154-0.322,0.392
		c0,0.673,0.435,1.485,1.022,1.962c0.099-0.28,0.154-0.589,0.154-0.883C262.344,16.383,262.036,15.669,261.489,15.669z"/>
	<path fill="#FFFFFF" d="M274.651,17.966c-0.406,0.616-0.854,0.883-1.303,0.883c-0.224,0-0.434-0.07-0.63-0.183
		c-0.393,1.051-1.064,1.821-2.018,1.821c-1.4,0-1.694-1.373-2.003-1.373c-0.042,0-0.084,0.015-0.112,0.07
		c-0.098,0.183-0.952,1.345-2.03,1.345c-1.85,0-1.989-2.283-1.989-3.544c0-1.232,0.14-2.186,0.154-2.591c0,0,0-0.449,0.392-0.449
		c0.393,0,0.7-0.014,0.938-0.014c0.379,0,0.561,0.042,0.561,0.267c0,0.336-0.126,1.583-0.126,2.619c0,1.316,0.308,1.835,0.771,1.835
		c0.308,0,0.938-0.406,1.093-0.729c0,0-0.267-0.603-0.238-1.513c0.027-0.812,0.28-1.611,0.854-1.611
		c0.518,0,0.868,0.757,0.868,1.373c0,0.603-0.224,1.555-0.322,1.653c0.42,0.63,0.826,0.854,1.19,0.854
		c0.463,0,0.883-0.364,1.177-0.785c-0.63-0.868-1.064-2.227-1.064-3.613c0-0.616,0.21-1.064,0.771-1.064
		c1.022,0,1.541,1.442,1.541,3.039c0,0.532-0.057,1.093-0.168,1.611c0.168,0.154,0.35,0.266,0.532,0.266
		c0.182,0,0.364-0.098,0.546-0.35c0.126-0.168,0.252-0.337,0.351-0.519c0.027-0.028,0.042-0.028,0.069-0.028
		c0.127,0,0.225,0.337,0.225,0.561C274.68,17.868,274.68,17.924,274.651,17.966z"/>
	<path fill="#FFFFFF" d="M282.183,17.966c-0.826,1.19-2.031,2.634-2.886,2.634c-0.603,0-1.036-0.715-1.036-2.718
		c0-0.925-0.042-2.396-0.351-2.396c-0.645,0-1.541,1.555-1.541,2.228c0,0.21,0.015,0.546,0.126,2.605c0,0,0,0.322-0.195,0.322
		c-0.701,0-1.598-0.015-1.598-0.015s-0.237,0-0.252-0.279c0,0-0.098-1.541-0.098-3.11c0-1.232,0.07-2.801,0.098-2.913
		c0.028-0.112,0.084-0.225,0.309-0.28c0.21-0.042,1.19-0.225,1.372-0.21c0.169,0,0.267,0.069,0.267,0.238
		c-0.014,0.308-0.084,1.176-0.084,1.652c0,0.099,0,0.168,0.014,0.21c0.364-0.771,2.031-2.241,3.082-2.241
		c0.519,0,0.883,0.364,0.883,1.317c0,0.21-0.028,2.633-0.028,2.633c0,0.309,0.112,0.658,0.477,0.673
		c0.504,0.014,0.77-0.421,1.176-1.051c0.028-0.028,0.042-0.028,0.07-0.028c0.126,0,0.225,0.337,0.225,0.561
		C282.211,17.868,282.211,17.924,282.183,17.966z"/>
	<path fill="#FFFFFF" d="M286.451,17.966c0,0-1.85,2.577-2.746,2.577c-0.994,0-1.765-1.05-1.793-2.562
		c0-0.322-0.014-1.598-0.014-3.04s0.014-3.025,0.027-3.95c0.028-1.135,2.199-2.886,2.872-2.886c0.771,0,1.093,1.541,1.093,2.255
		c0,1.107-0.099,3.026-2.045,5.813c0,2.171,0.224,2.704,0.672,2.704c0.504,0,1.261-0.981,1.667-1.611
		c0.028-0.028,0.042-0.028,0.07-0.028c0.126,0,0.224,0.337,0.224,0.561C286.479,17.868,286.479,17.924,286.451,17.966z
		 M284.153,9.548c-0.504,0-0.519,1.274-0.519,1.4c0,0.812,0.015,3.922,0.015,3.922c0,0.07,0.027,0.07,0.027,0.07
		c0.028,0,0.07-0.07,0.07-0.07c0.448-0.561,1.009-3.025,1.009-3.894C284.756,10.065,284.405,9.548,284.153,9.548z"/>
	<path fill="#FFFFFF" d="M293.984,17.966c-0.532,0.799-1.121,1.106-1.682,1.106c-0.153,0-0.294-0.014-0.434-0.042
		c-0.532,0.896-1.443,1.569-2.718,1.569c-2.031,0-2.956-1.625-2.956-3.292c0-1.779,1.051-3.6,2.942-3.6
		c0.63,0,0.882,0.322,0.882,0.588c0,0.196-0.126,0.364-0.35,0.364c-1.009,0-1.541,0.994-1.541,2.031c0,1.12,0.616,2.283,1.919,2.283
		c0.378,0,0.687-0.141,0.91-0.364c-0.868-0.63-1.372-1.807-1.372-2.718c0-0.714,0.308-1.261,1.022-1.261
		c1.232,0,1.835,1.079,1.835,2.325c0,0.477-0.099,0.98-0.267,1.443h0.112c0.364,0,0.742-0.183,1.078-0.616
		c0.127-0.168,0.253-0.337,0.351-0.519c0.028-0.028,0.042-0.028,0.07-0.028c0.126,0,0.224,0.337,0.224,0.561
		C294.012,17.868,294.012,17.924,293.984,17.966z M290.622,15.669c-0.224,0-0.322,0.154-0.322,0.392
		c0,0.673,0.435,1.485,1.022,1.962c0.099-0.28,0.154-0.589,0.154-0.883C291.477,16.383,291.169,15.669,290.622,15.669z"/>
	<path fill="#FFFFFF" d="M301.923,17.966c0,0-2.018,2.634-2.914,2.634c-0.63,0-0.967-0.687-1.106-1.485
		c-0.056,0.126-1.597,1.569-2.409,1.569c-1.093,0-1.877-1.19-1.877-2.592c0-1.975,1.568-4.356,6.009-4.356
		c0,0,0.183,0.015,0.183,0.267v3.852c0,0.309,0.027,0.757,0.392,0.771c0.309,0.015,0.701-0.336,0.98-0.672
		c0.168-0.21,0.322-0.448,0.477-0.687c0.028-0.028,0.042-0.028,0.07-0.028c0.126,0,0.224,0.337,0.224,0.561
		C301.95,17.868,301.95,17.924,301.923,17.966z M295.633,17.462c0,0.91,0.393,1.694,0.911,1.694c0.462,0,1.232-0.896,1.232-0.896
		c0.056-0.069,0.056-0.14,0.056-0.182c0-0.574,0.015-3.376,0.015-3.376C296.207,15.038,295.633,16.355,295.633,17.462z"/>
	<path fill="#FFFFFF" d="M309.972,17.966c0,0-1.849,2.577-2.745,2.577c-0.729,0-1.064-0.84-1.177-1.793
		c-0.14,0.099-1.681,1.962-2.479,1.962c-1.316,0-1.975-1.317-1.975-2.802c0-1.961,1.148-4.244,3.474-4.244
		c0.098,0,0.196,0,0.841,0.069c0,0-0.042-2.381-0.042-3.558c0-0.112,0.098-0.532,1.008-0.532h0.406c0.49,0,0.729,0.014,0.715,0.224
		c-0.126,1.85-0.183,3.811-0.183,5.394c0,1.106,0.015,2.017,0.042,2.605c0.015,0.308,0.127,0.658,0.49,0.672
		c0.505,0.015,0.953-0.645,1.359-1.274c0.028-0.028,0.042-0.028,0.07-0.028c0.126,0,0.224,0.337,0.224,0.561
		C310,17.868,310,17.924,309.972,17.966z M305.91,14.758c-0.141-0.111-0.477-0.182-0.547-0.182c-1.19,0-1.751,1.457-1.751,2.676
		c0,0.854,0.28,1.582,0.799,1.582c0.42,0,1.219-0.868,1.415-1.036c0,0,0.084-0.084,0.084-0.294V14.758z"/>
</g>
</svg>
